<svg width="30" height="30" viewBox="0 0 30 30" fill="none" xmlns="http://www.w3.org/2000/svg">
<path d="M3.75 26.236H26.25M6.87501 22.5001C5.83948 22.5001 5.00001 21.6606 5.00001 20.6251V10.6251C5.00001 9.58953 5.83948 8.75006 6.87501 8.75006C7.91054 8.75006 8.75001 9.58953 8.75001 10.6251V20.6251C8.75001 21.6606 7.91054 22.5001 6.87501 22.5001ZM23.125 22.5001C22.0895 22.5001 21.25 21.6606 21.25 20.6251V15.6251C21.25 14.5895 22.0895 13.7501 23.125 13.7501C24.1605 13.7501 25 14.5895 25 15.6251V20.6251C25 21.6606 24.1605 22.5001 23.125 22.5001ZM14.9999 22.5001C13.9644 22.5001 13.1249 21.6606 13.1249 20.6251V5.62506C13.1249 4.58953 13.9644 3.75006 14.9999 3.75006C16.0355 3.75006 16.8749 4.58953 16.8749 5.62506V20.6251C16.8749 21.6606 16.0355 22.5001 14.9999 22.5001Z" stroke="#0189B2" stroke-width="1.6" stroke-linecap="round"/>
</svg>
