<svg width="26" height="26" viewBox="0 0 26 26" fill="none" xmlns="http://www.w3.org/2000/svg">
<path d="M2.375 21.1251L6.89542 18.4128C7.43324 18.0901 7.70216 17.9288 7.98468 17.8399C8.41046 17.7061 8.8643 17.6887 9.29909 17.7895C9.58759 17.8564 9.86809 17.9966 10.4291 18.2771C11.0319 18.5785 11.3333 18.7292 11.6417 18.7957C12.1067 18.8961 12.5906 18.8617 13.0367 18.6966C13.3326 18.5871 13.6097 18.3953 14.1638 18.0117L18.0659 15.3102C19.2525 14.4887 19.8458 14.0779 20.5287 14.0294C21.2116 13.9809 21.8571 14.3036 23.148 14.9491L24.25 15.5001M24.25 15.5001V11.7501C24.25 7.03602 24.25 4.67899 22.7855 3.21453C21.3211 1.75006 18.964 1.75006 14.25 1.75006H11.75C7.03595 1.75006 4.67893 1.75006 3.21447 3.21453C1.75 4.67899 1.75 7.03602 1.75 11.7501V14.2501C1.75 18.9641 1.75 21.3211 3.21447 22.7856C4.67893 24.2501 7.03595 24.2501 11.75 24.2501H15.5C19.0112 24.2501 20.7667 24.2501 22.0279 23.4074C22.5738 23.0426 23.0426 22.5739 23.4073 22.0279C24.25 20.7668 24.25 19.0112 24.25 15.5001ZM11.75 9.25006C11.75 10.6308 10.6307 11.7501 9.25 11.7501C7.86929 11.7501 6.75 10.6308 6.75 9.25006C6.75 7.86935 7.86929 6.75006 9.25 6.75006C10.6307 6.75006 11.75 7.86935 11.75 9.25006Z" stroke="#0189B2" stroke-width="1.6"/>
</svg>
