<svg width="30" height="30" viewBox="0 0 30 30" fill="none" xmlns="http://www.w3.org/2000/svg">
<path d="M17 6.00006H14C10.2288 6.00006 8.34315 6.00006 7.17157 7.17163C6 8.34321 6 10.2288 6 14.0001V16.0001C6 19.7713 6 21.6569 7.17157 22.8285C8.34315 24.0001 10.2288 24.0001 14 24.0001H16C19.7712 24.0001 21.6569 24.0001 22.8284 22.8285C24 21.6569 24 19.7713 24 16.0001V13.0001M22 6.00006V10.0001M24 8.00006H20M13 14.469V15.6364C13 17.1779 13 17.9486 13.5005 18.2372C14.001 18.5258 14.668 18.1396 16.0021 17.3673L17.0103 16.7836C18.3395 16.014 19.0041 15.6293 19.0041 15.0527C19.0041 14.4762 18.3395 14.0914 17.0103 13.3219L16.0021 12.7381C14.668 11.9658 14.001 11.5796 13.5005 11.8682C13 12.1568 13 12.9275 13 14.469Z" stroke="black" stroke-width="1.6" stroke-linecap="round" stroke-linejoin="round"/>
</svg>
