<svg width="18" height="19" viewBox="0 0 18 19" fill="none" xmlns="http://www.w3.org/2000/svg">
<path d="M16.6516 0.75C17.3156 0.75 17.9016 1.33594 17.9016 2.03906V17C17.9016 17.7031 17.3156 18.25 16.6516 18.25H1.6125C0.948438 18.25 0.401563 17.7031 0.401563 17V2.03906C0.401563 1.33594 0.948438 0.75 1.6125 0.75H16.6516ZM5.675 15.75V7.42969H3.09688V15.75H5.675ZM4.38594 6.25781C5.20625 6.25781 5.87031 5.59375 5.87031 4.77344C5.87031 3.95312 5.20625 3.25 4.38594 3.25C3.52656 3.25 2.8625 3.95312 2.8625 4.77344C2.8625 5.59375 3.52656 6.25781 4.38594 6.25781ZM15.4016 15.75V11.1797C15.4016 8.95312 14.8938 7.19531 12.2766 7.19531C11.0266 7.19531 10.1672 7.89844 9.81563 8.5625H9.77656V7.42969H7.31563V15.75H9.89375V11.6484C9.89375 10.5547 10.0891 9.5 11.4563 9.5C12.7844 9.5 12.7844 10.75 12.7844 11.6875V15.75H15.4016Z" fill="#0189B2"/>
</svg>
