<svg width="21" height="17" viewBox="0 0 21 17" fill="none" xmlns="http://www.w3.org/2000/svg">
<path d="M18.0891 4.4375C18.0891 4.63281 18.0891 4.78906 18.0891 4.98438C18.0891 10.4141 13.9875 16.625 6.44844 16.625C4.10469 16.625 1.95625 15.9609 0.159375 14.7891C0.471875 14.8281 0.784375 14.8672 1.13594 14.8672C3.05 14.8672 4.80781 14.2031 6.21406 13.1094C4.41719 13.0703 2.89375 11.8984 2.38594 10.2578C2.65938 10.2969 2.89375 10.3359 3.16719 10.3359C3.51875 10.3359 3.90938 10.2578 4.22188 10.1797C2.34688 9.78906 0.940625 8.14844 0.940625 6.15625V6.11719C1.4875 6.42969 2.15156 6.58594 2.81563 6.625C1.68281 5.88281 0.979688 4.63281 0.979688 3.22656C0.979688 2.44531 1.175 1.74219 1.52656 1.15625C3.55781 3.61719 6.60469 5.25781 10.0031 5.45312C9.925 5.14062 9.88594 4.82812 9.88594 4.51562C9.88594 2.25 11.7219 0.414062 13.9875 0.414062C15.1594 0.414062 16.2141 0.882812 16.9953 1.70312C17.8938 1.50781 18.7922 1.15625 19.5734 0.6875C19.2609 1.66406 18.6359 2.44531 17.7766 2.95312C18.5969 2.875 19.4172 2.64062 20.1203 2.32812C19.5734 3.14844 18.8703 3.85156 18.0891 4.4375Z" fill="#0189B2"/>
</svg>
