<svg width="20" height="21" viewBox="0 0 20 21" fill="none" xmlns="http://www.w3.org/2000/svg">
<path d="M19.845 10.5C19.845 15.8516 15.5091 20.1875 10.1575 20.1875C9.14187 20.1875 8.16531 20.0703 7.26687 19.7578C7.6575 19.1328 8.24343 18.0781 8.47781 17.2188C8.595 16.7891 9.06375 14.9141 9.06375 14.9141C9.37625 15.5391 10.3137 16.0469 11.2903 16.0469C14.22 16.0469 16.3294 13.3516 16.3294 10.0312C16.3294 6.82812 13.7122 4.40625 10.3528 4.40625C6.17312 4.40625 3.94656 7.21875 3.94656 10.2656C3.94656 11.7109 4.68875 13.4688 5.89968 14.0547C6.095 14.1328 6.21218 14.0938 6.25125 13.8984C6.25125 13.7812 6.44656 13.1172 6.52468 12.8047C6.52468 12.7266 6.52468 12.6094 6.44656 12.5312C6.05593 12.0625 5.74343 11.1641 5.74343 10.3047C5.74343 8.19531 7.345 6.125 10.1184 6.125C12.4622 6.125 14.1419 7.72656 14.1419 10.0703C14.1419 12.6875 12.8137 14.4844 11.095 14.4844C10.1575 14.4844 9.45437 13.7031 9.64968 12.7656C9.92312 11.5938 10.47 10.3438 10.47 9.52344C10.47 8.78125 10.0794 8.15625 9.25906 8.15625C8.2825 8.15625 7.50125 9.17188 7.50125 10.5C7.50125 11.3594 7.77468 11.9453 7.77468 11.9453C7.77468 11.9453 6.83718 16.0078 6.64187 16.75C6.44656 17.6094 6.52468 18.7812 6.60281 19.5234C3.00906 18.1172 0.469996 14.6406 0.469996 10.5C0.469996 5.14844 4.80593 0.8125 10.1575 0.8125C15.5091 0.8125 19.845 5.14844 19.845 10.5Z" fill="#0189B2"/>
</svg>
