<svg width="28" height="22" viewBox="0 0 28 22" fill="none" xmlns="http://www.w3.org/2000/svg">
<path d="M1.5 8.50006C1.5 4.96453 1.5 3.19676 2.59835 2.09841C3.6967 1.00006 5.46447 1.00006 9 1.00006H12.75C16.2855 1.00006 18.0533 1.00006 19.1517 2.09841C20.25 3.19676 20.25 4.96453 20.25 8.50006V13.5001C20.25 17.0356 20.25 18.8034 19.1517 19.9017C18.0533 21.0001 16.2855 21.0001 12.75 21.0001H9C5.46447 21.0001 3.6967 21.0001 2.59835 19.9017C1.5 18.8034 1.5 17.0356 1.5 13.5001V8.50006Z" stroke="#0189B2" stroke-width="1.6" stroke-linecap="round"/>
<path d="M22.5663 6.25362L20.25 7.87506V15.3751L22.5663 16.9965C24.2918 18.2043 25.1545 18.8082 25.8273 18.458C26.5 18.1077 26.5 17.0546 26.5 14.9484V8.3017C26.5 6.19551 26.5 5.14242 25.8273 4.79216C25.1545 4.44189 24.2918 5.0458 22.5663 6.25362Z" stroke="#0189B2" stroke-width="1.6" stroke-linecap="round"/>
</svg>
